<?xml version="1.0" standalone="no"?><!DOCTYPE svg PUBLIC "-//W3C//DTD SVG 1.1//EN" "http://www.w3.org/Graphics/SVG/1.1/DTD/svg11.dtd"><svg t="1769590875099" class="icon" viewBox="0 0 1066 1024" version="1.1" xmlns="http://www.w3.org/2000/svg" p-id="1048" xmlns:xlink="http://www.w3.org/1999/xlink" width="18.73828125" height="18"><path d="M661.333333 490.666667l241.024 64 12.8-240.128a33.024 33.024 0 0 0-22.314666-31.061334v-0.426666c-135.68-45.098667-301.098667-130.858667-336.512-166.741334a32.810667 32.810667 0 0 0-23.210667-9.642666c-7.893333 0-17.066667 3.498667-23.210667 9.642666-42.453333 41.984-171.52 125.994667-336.512 172.373334a33.237333 33.237333 0 0 0-24.064 31.573333L162.389333 554.666667 405.333333 490.666667h256z" fill="#4976E8" opacity=".9" p-id="1049"></path><path d="M532.266667 960a33.322667 33.322667 0 0 1-9.216-1.28C317.354667 899.712 221.354667 800.426667 179.242667 640L384 576h298.666667l203.349333 64c-41.514667 162.304-137.088 259.370667-344.576 318.72-3.072 1.28-6.144 1.28-9.173333 1.28z" fill="#40A629" opacity=".9" p-id="1050"></path><path d="M533.333333 533.333333m-170.666666 0a170.666667 170.666667 0 1 0 341.333333 0 170.666667 170.666667 0 1 0-341.333333 0Z" fill="#FFFFFF" opacity=".9" p-id="1051"></path></svg>